<?xml version="1.0" encoding="utf-8"?>
<!-- Generator: Adobe Illustrator 25.0.0, SVG Export Plug-In . SVG Version: 6.00 Build 0)  -->
<svg version="1.1" xmlns="http://www.w3.org/2000/svg" xmlns:xlink="http://www.w3.org/1999/xlink" x="0px" y="0px"
	 viewBox="0 0 1366 768" style="enable-background:new 0 0 1366 768;" xml:space="preserve">
<style type="text/css">
	.st0{fill:#E5E5E5;}
	.st1{fill:#751332;}
	.st2{fill:#878888;}
</style>
<g id="Layer_2">
	<rect class="st0" width="1366" height="768"/>
</g>
<g id="Layer_1">
	<path class="st1" d="M998.9,334.65c-4.7-4.7-9.4-9.41-14.11-14.11c-0.4-0.41-0.57-1.51-0.57-2.21c-0.09-7.62-0.04-12.41,0.13-14.38
		c0.87-9.84,12.05-17.66,20.99-19.07c3.49-0.55,8.12-0.74,11.56,0.3c7.5,2.29,13.13,8.38,14.79,15.99
		c1.28,5.86,0.71,13.47,0.63,19.71c0,0.29-0.12,0.57-0.32,0.77l-3.31,3.28c-0.04,0.04-0.11,0.05-0.15,0
		c-0.02-0.02-0.04-0.05-0.03-0.08c0.04-6.02,0.06-11.85,0.05-17.49c-0.01-5.97-2.09-11.8-6.83-15.54
		c-10.3-8.11-28.02-2.16-32.74,9.62c-0.93,2.31-1.16,4.42-0.7,6.33c0.86,3.54,4.16,6.81,8.08,6.78c6.48-0.04,9.8-3.03,13.89-7.52
		c0.76-0.84,1.94-1.21,2.58-0.07c0.57,1.03,0.23,2.74,0.23,3.59c-0.02,9.93-0.02,19.86,0,29.79c0,0.19-0.07,0.34-0.2,0.47
		l-3.63,3.43c-0.21,0.2-0.43,0.21-0.64,0.01C1005.19,341.22,1001.26,337.01,998.9,334.65z"/>
	<path class="st1" d="M1068.55,378.98c-6.77-6.68-13.42-13.52-20.05-20.35c-1.26-1.3-2.71-0.91-3.91,0.31
		c-8.8,8.93-17.67,17.9-26.63,26.91c-0.09,0.09-0.23,0.09-0.32,0c-0.04-0.04-0.07-0.1-0.07-0.17c0.17-7.64,0.18-15.32,0.01-23.03
		c-0.02-0.89,0.42-1.78,1.31-2.68c8.7-8.78,17.39-17.58,26.09-26.43c0.86-0.87,2.27-0.88,3.15-0.02c0.01,0.01,0.01,0.01,0.02,0.02
		c10.46,10.55,21.05,21.18,31.76,31.87c9.45,9.43,14.56,20.82,12.73,34.17c-1.31,9.53-6.08,16.82-12.9,23.69
		c-20.29,20.42-40.68,40.92-61.16,61.5c-0.2,0.19-0.51,0.19-0.7-0.01c-0.11-0.11-0.16-0.26-0.14-0.41c0.08-0.58-0.14-1.1-0.13-1.62
		c0.13-23.14,0.12-46.27-0.04-69.41c-0.01-1.35,0.48-2.79,1.52-3.84c8.97-8.98,17.96-17.99,26.96-27.02
		c0.35-0.35,0.89-0.42,1.31-0.17c0.48,0.28,0.92,0.78,1.3,1.48c3.52,6.39,4.15,15.39-0.47,21.45c-0.57,0.75-1.75,1.84-3.53,3.26
		c-6.09,4.86-9.96,11.07-10.11,18.95c-0.06,3.34,0.66,7.08,0.61,10.29c-0.02,1.64-0.09,3.24-0.21,4.81
		c-0.01,0.16,0.11,0.3,0.27,0.31c0.08,0.01,0.16-0.02,0.22-0.08c10.85-10.77,21.67-21.58,32.47-32.44c2.44-2.45,4.55-4.91,5.9-8.01
		C1077.52,393.85,1074.95,385.3,1068.55,378.98z"/>
	<path class="st2" d="M948.79,409.35c12.89,12.94,25.74,25.9,38.72,38.76c5.57,5.52,13.03,9.99,13.02,18.89
		c0,5.83-0.56,11.5-0.42,17.45c0,0.06-0.05,0.11-0.11,0.12c-0.03,0-0.06-0.01-0.09-0.03c-21.53-21.31-43.33-42.35-64.33-64.19
		c-2.87-2.99-4.89-5.43-6.05-7.33c-7.73-12.66-5.89-29.63,2.75-41.13c1.16-1.55,3.37-3.96,6.63-7.24
		c10.17-10.23,20.33-20.47,30.48-30.72c1.65-1.66,2.99-0.77,4.41,0.65c6.17,6.21,11.84,12.52,18.53,18.23
		c6.1,5.2,8.8,11.69,8.1,19.48c-0.43,4.73-0.52,7.42-0.28,11.34c0.04,0.58-0.08,1.01-0.34,1.28c-0.3,0.3-0.78,0.31-1.08,0.01
		c-0.03-0.03-0.06-0.06-0.08-0.09c-1.3-1.76-2.7-3.4-4.2-4.91c-6.75-6.73-13.47-13.49-20.18-20.26c-2.07-2.1-3.04-3.16-5.32-0.64
		c-2.49,2.74-5.29,5.54-8.42,8.4c-1.8,1.65-0.74,3.02,0.69,4.45c12.76,12.7,25.47,25.45,38.13,38.24c0.46,0.47,0.72,1.09,0.72,1.75
		v22.61c0,0.39-0.31,0.7-0.7,0.7c-0.21,0-0.41-0.09-0.54-0.26c-1-1.23-2.12-2.46-3.36-3.71c-14.34-14.43-28.66-28.87-42.99-43.31
		c-1.62-1.63-3.19-3.34-5.07-4.91c-0.44-0.36-0.87-0.36-1.32,0c-0.87,0.7-1.58,1.71-2.14,3.05
		C940.52,394.15,942.61,403.16,948.79,409.35z"/>
	<path class="st1" d="M819.05,358.23c11.23-0.24,23.08-0.75,23.2,14.16c0.03,4.03,0.03,8.05,0,12.08c0,0.16-0.08,0.25-0.25,0.25
		c-17.08,0.01-34.15,0.01-51.22,0c-3.15,0-4.16-0.57-5.61-3.2c-0.05-0.1-0.18-0.13-0.27-0.08c-0.07,0.04-0.11,0.11-0.1,0.19
		c0.35,3.76-0.07,9.25-2.42,12.41c-3.17,4.28-10.02,4.67-14.8,3.13c-0.15-0.05-0.22-0.15-0.22-0.3v-6.5c0-0.18,0.09-0.25,0.26-0.19
		c5.15,1.73,5.48-1.01,5.53-5.13c0.09-7.98,0.12-15.95,0.12-23.91c0-0.13,0.11-0.24,0.24-0.24h11.16c0.13,0,0.24,0.11,0.24,0.24
		c0.03,4.13,0.03,8.23,0.01,12.31c-0.01,2.19,1.14,3.29,3.29,3.3c14.06,0.03,28.11,0.02,42.17-0.02c0.16,0,0.25-0.08,0.26-0.24
		c0.24-2.92,0.15-5.33-0.28-7.22c-0.62-2.78-2.82-3.43-5.56-3.44c-6.01-0.02-12.01-0.02-18.02,0c-0.14,0-0.25-0.11-0.25-0.25l0,0
		v-7.05c0-0.16,0.06-0.31,0.17-0.42l12.9-13.07c0.13-0.14,0.31-0.21,0.51-0.21h11.3c0.29,0,0.34,0.1,0.13,0.31l-12.62,12.8
		C818.73,358.14,818.77,358.24,819.05,358.23z"/>
	<path class="st1" d="M422.62,381.43c-0.02-0.1-0.13-0.16-0.23-0.14c-0.06,0.02-0.11,0.06-0.13,0.12l-1.09,3.08
		c-0.06,0.16-0.17,0.24-0.33,0.24h-66.78c-0.16,0-0.25-0.08-0.25-0.25v-39.42c0-0.16,0.08-0.25,0.25-0.25h11.17
		c0.16,0,0.25,0.08,0.25,0.25v31.43c0,0.14,0.11,0.25,0.25,0.25h44.56c0.11,0,0.21-0.09,0.21-0.2c0.19-3.19,0.6-7.35-2.07-9.72
		c-4.09-3.62-11.1-1.93-13.23,3.23c-0.05,0.12-0.14,0.18-0.28,0.18h-10.27c-0.15,0-0.28-0.12-0.28-0.27c0-0.01,0-0.02,0-0.03
		c0.63-7.18,7.41-11.22,14.02-12.22c11.54-1.74,23.3,2.69,23.93,16.05c0.07,1.48,0.85,2.79,2.34,2.86
		c4.91,0.21,8.42,0.24,10.53,0.08c2.7-0.21,2.96-2.25,2.96-4.64c0-3.63,0.01-7.27,0.02-10.92c0-0.13,0.11-0.24,0.25-0.24h11.15
		c0.15,0,0.23,0.08,0.23,0.23c0.05,4.2,0.07,8.38,0.06,12.53c0,2.62,1.57,3.04,3.9,3.07c2.59,0.04,5.18,0.03,7.77-0.02
		c0.22,0,0.33-0.11,0.33-0.33l-0.01-31.25c0-0.21,0.1-0.31,0.31-0.31h11c0.16,0,0.25,0.08,0.25,0.25v39.41
		c0,0.14-0.11,0.25-0.25,0.25l0,0c-6.24,0-12.51,0-18.81,0c-3.62,0-5.94-0.45-7.66-3.59c-0.05-0.09-0.17-0.13-0.26-0.08
		c-0.01,0.01-0.02,0.01-0.04,0.02c-5.24,4.63-11.65,3.68-19.12,3.65C424.75,384.73,423.22,383.85,422.62,381.43z"/>
	<path class="st1" d="M434.82,344.83l8.54-0.01c0.12,0,0.21,0.09,0.21,0.21l0.01,6.09c0,0.12-0.09,0.21-0.21,0.21l-8.54,0.01
		c-0.12,0-0.21-0.09-0.21-0.21l-0.01-6.09C434.61,344.93,434.7,344.83,434.82,344.83z"/>
	<path class="st1" d="M446.22,344.83l8.43-0.01c0.18,0,0.32,0.14,0.32,0.32l0.01,5.87c0,0.18-0.14,0.32-0.32,0.32l-8.43,0.01
		c-0.18,0-0.32-0.14-0.32-0.32l-0.01-5.87C445.9,344.97,446.04,344.83,446.22,344.83z"/>
	<path class="st1" d="M484.59,344.83h11.3c0.07,0,0.13,0.06,0.13,0.13v39.65c0,0.07-0.06,0.13-0.13,0.13h-11.3
		c-0.07,0-0.13-0.06-0.13-0.13v-39.65C484.46,344.89,484.52,344.83,484.59,344.83z"/>
	<path class="st1" d="M694.54,376.75h11.12c0.2,0,0.3-0.1,0.3-0.3l0-31.39c0-0.15,0.08-0.23,0.23-0.23h11.07
		c0.16,0,0.25,0.08,0.25,0.25v39.42c0,0.14-0.11,0.25-0.25,0.25H646.3c-0.14,0-0.25-0.11-0.25-0.25v-39.42
		c0-0.16,0.08-0.25,0.25-0.25h11.17c0.16,0,0.25,0.08,0.25,0.25v31.37c0,0.2,0.1,0.3,0.31,0.3h7.31c0.28,0,0.34-0.12,0.19-0.35
		c-1.06-1.59-1.65-2.75-1.75-3.47c-1.34-9.4,5.2-15.05,13.92-15.5c9.85-0.51,19.69,3.09,18.52,15c-0.08,0.84-0.7,2.18-1.85,4
		C694.23,376.64,694.29,376.75,694.54,376.75z M677.09,376.29c7.46,4.27,9.45-7.85,5.04-10.68c-2.13-1.37-5.44-0.62-6.4,1.91
		C674.92,369.64,674.62,374.87,677.09,376.29z"/>
	<path class="st1" d="M669.36,344.82l8.41,0.01c0.17,0,0.31,0.14,0.31,0.31l-0.01,5.87c0,0.17-0.14,0.31-0.31,0.31l-8.41-0.01
		c-0.17,0-0.31-0.14-0.31-0.31l0.01-5.87C669.05,344.96,669.19,344.82,669.36,344.82z"/>
	<path class="st1" d="M680.64,344.83l8.54-0.01c0.12,0,0.21,0.09,0.21,0.21l0.01,6.09c0,0.12-0.09,0.21-0.21,0.21l-8.54,0.01
		c-0.12,0-0.21-0.09-0.21-0.21l-0.01-6.09C680.43,344.92,680.52,344.83,680.64,344.83z"/>
	<path class="st1" d="M729.19,344.82h11.28c0.07,0,0.13,0.06,0.13,0.13v39.64c0,0.07-0.06,0.13-0.13,0.13h-11.28
		c-0.07,0-0.13-0.06-0.13-0.13v-39.64C729.06,344.88,729.11,344.82,729.19,344.82z"/>
	<path class="st1" d="M774,344.82h10.19c0.07,0,0.13,0.06,0.13,0.13v6.26c0,0.07-0.06,0.13-0.13,0.13H774
		c-0.07,0-0.13-0.06-0.13-0.13v-6.26C773.87,344.88,773.93,344.82,774,344.82z"/>
	<path class="st1" d="M597.09,346.35h9.79c0.2,0,0.37,0.16,0.37,0.37v5.84c0,0.2-0.16,0.37-0.37,0.37h-9.79
		c-0.2,0-0.37-0.16-0.37-0.37v-5.84C596.72,346.51,596.88,346.35,597.09,346.35z"/>
	<path class="st1" d="M303.4,384.27c-5.69-2.26-11.6-4.22-14.73-10.03c-3.49-6.47-0.02-13.38,6.52-15.81
		c8.7-3.24,19.08-0.05,20.54,10.22c0.01,0.11-0.06,0.21-0.17,0.22c-0.01,0-0.02,0-0.03,0l-8.69,0.12c-0.48,0.01-0.89-0.34-0.95-0.82
		c-0.42-3.18-4.65-4.67-6.39-1.55c-1.95,3.5,0.67,6.69,4.01,7.79c3.48,1.15,6.4,2.42,8.76,3.81c6.22,3.67,6.01,12.98,0.74,17.29
		c-4.09,3.34-9.71,4.28-15.27,4.61c-16.17,0.95-25.37-4.81-25.39-21.87c0-0.19,0.09-0.28,0.28-0.28h8.59c0.14,0,0.25,0.11,0.25,0.25
		c-0.03,6.51,1.41,12.3,8.73,13.6c4.31,0.77,8.32,0.59,12.03-0.55C305.28,390.35,307.3,385.83,303.4,384.27z"/>
	<path class="st1" d="M867.84,381.64c0.31,4.26-0.12,10.85-3.78,13.83c-3.57,2.91-9.16,3.07-13.41,1.78
		c-0.18-0.06-0.28-0.18-0.28-0.37v-6.5c0-0.19,0.09-0.25,0.27-0.19c5.13,1.75,5.48-1.04,5.52-5.12c0.09-7.98,0.12-15.95,0.12-23.91
		c0-0.13,0.11-0.24,0.24-0.24h11.16c0.13,0,0.24,0.1,0.24,0.24c0.03,4.12,0.04,8.21,0.01,12.28c-0.01,1.89,0.66,3.01,2.59,3.16
		c2.47,0.2,4.93,0.24,7.41,0.11c0.23-0.01,0.28-0.11,0.14-0.29c-1.21-1.66-1.85-2.94-1.92-3.83c-0.74-9.11,4.65-14.06,13.05-15.08
		c11.19-1.37,21.59,3.84,19.33,16.76c-1.2,6.86-8,10.22-14.73,10.33c-6.68,0.11-13.36,0.16-20.04,0.14c-2.86,0-4.42-0.57-5.49-3.19
		c-0.04-0.11-0.17-0.17-0.28-0.13C867.88,381.44,867.83,381.54,867.84,381.64z M896.7,369.16c0-2.28-1.85-4.14-4.14-4.14h-0.65
		c-2.28,0-4.14,1.85-4.14,4.14v3.75c0,2.28,1.85,4.14,4.14,4.14h0.65c2.28,0,4.14-1.85,4.14-4.14V369.16z"/>
	<path class="st1" d="M565.93,385.05c4.87,7.95-3.52,12.75-9.94,14.16c-5.27,1.16-10.57,1.34-15.91,0.53
		c-11.42-1.73-15.91-9.91-15.71-20.89c0-0.17,0.09-0.25,0.25-0.25h9.32c0.14,0,0.26,0.12,0.27,0.26c0.06,5.86,1.67,11.47,8.22,12.86
		c3.51,0.75,12.22,1.02,14.39-2.08c1.6-2.28,0.15-4.72-2.51-4.85c-1.99-0.09-3.81-0.71-5.46-1.85c-0.1-0.07-0.16-0.18-0.16-0.3
		v-7.23c0-0.19,0.09-0.26,0.28-0.21c3.54,0.98,6.86,1.49,9.95,1.53c4.73,0.06,14.26,0.06,28.59,0c0.15,0,0.23-0.08,0.23-0.23v-13.62
		c0-0.25,0.12-0.37,0.37-0.37h10.19c0.16,0,0.25,0.08,0.25,0.25v5.9c0,0.12,0.1,0.23,0.23,0.23c0.07,0,0.13-0.03,0.17-0.08
		c4.38-5.12,10.7-9.35,17.43-10.09c8.15-0.9,18.85,2.2,18.97,12.31c0.05,4.5,0.06,8.99,0.02,13.48c0,0.13-0.11,0.24-0.24,0.24
		h-69.01C565.86,384.73,565.8,384.84,565.93,385.05z M623.65,376.27c-0.11-4.33,0.55-9.48-5.48-9.62
		c-6.7-0.15-13.74,5.14-18.04,9.86c-0.05,0.06-0.05,0.15,0,0.2c0.03,0.03,0.07,0.04,0.1,0.04h22.94
		C623.5,376.75,623.66,376.59,623.65,376.27z"/>
	<path class="st1" d="M325.02,397.25c-0.11-0.03-0.18-0.13-0.18-0.24v-6.64c0-0.19,0.09-0.25,0.27-0.19
		c5.14,1.75,5.47-1.02,5.52-5.12c0.09-7.98,0.13-15.95,0.12-23.91c0-0.14,0.11-0.25,0.25-0.25h11.14c0.16,0,0.25,0.08,0.25,0.25
		c0.04,7.14,0.05,14.26,0.03,21.36c-0.01,2.33-0.22,5.13-0.6,7.07C340.18,397.68,331.86,399.23,325.02,397.25z"/>
	<path class="st1" d="M398.49,390.05l9.95-0.07c0.13,0,0.24,0.11,0.24,0.24l0.04,6.09c0,0.13-0.11,0.24-0.24,0.24l-9.95,0.07
		c-0.13,0-0.24-0.11-0.24-0.24l-0.04-6.09C398.25,390.16,398.35,390.05,398.49,390.05z"/>
	<path class="st1" d="M286.9,404.38h8.46c0.14,0,0.26,0.11,0.26,0.26v6c0,0.14-0.11,0.26-0.26,0.26h-8.46
		c-0.14,0-0.26-0.11-0.26-0.26v-6C286.65,404.49,286.76,404.38,286.9,404.38z"/>
	<path class="st1" d="M298.28,404.38l8.42-0.01c0.18,0,0.33,0.15,0.33,0.33l0.01,5.85c0,0.18-0.15,0.33-0.33,0.33l-8.42,0.01
		c-0.18,0-0.33-0.15-0.33-0.33l-0.01-5.85C297.95,404.53,298.1,404.38,298.28,404.38z"/>
	<path class="st1" d="M537.73,407.82l8.29,0.03c0.18,0,0.33,0.15,0.33,0.34l-0.02,5.95c0,0.18-0.15,0.33-0.34,0.33l-8.29-0.03
		c-0.18,0-0.33-0.15-0.33-0.34l0.02-5.95C537.39,407.96,537.54,407.81,537.73,407.82z"/>
	<path class="st1" d="M548.99,407.82l8.33-0.01c0.18,0,0.32,0.14,0.32,0.32l0.01,5.99c0,0.18-0.14,0.32-0.32,0.32l-8.33,0.01
		c-0.18,0-0.32-0.14-0.32-0.32l-0.01-5.99C548.67,407.97,548.82,407.82,548.99,407.82z"/>
	<path class="st2" d="M309.49,418.63h4.77c0.07,0,0.13,0.06,0.13,0.13v32.14c0,0.07-0.06,0.13-0.13,0.13h-4.77
		c-0.07,0-0.13-0.06-0.13-0.13v-32.14C309.36,418.68,309.42,418.63,309.49,418.63z"/>
	<path class="st2" d="M426.39,432.62l-0.01-13.69c0-0.21,0.1-0.31,0.31-0.31h4.43c0.21,0,0.31,0.1,0.31,0.31l0,31.85
		c0,0.17-0.09,0.26-0.26,0.26h-4.31c-0.27,0-0.39-0.13-0.37-0.4l0.15-1.95c0.01-0.13-0.09-0.24-0.22-0.25
		c-0.09-0.01-0.17,0.03-0.22,0.11c-1.92,2.9-6.44,3.47-9.46,2.65c-10.88-2.98-9.37-20.84,2.34-21.26c2.63-0.09,4.99,0.84,7.07,2.81
		c0.06,0.06,0.16,0.05,0.22-0.01C426.37,432.69,426.39,432.66,426.39,432.62z M420.56,447.15c3.34-0.03,6.03-2.93,5.99-6.48
		c-0.03-3.55-2.77-6.4-6.11-6.37c-3.34,0.03-6.03,2.93-5.99,6.48C414.48,444.32,417.22,447.18,420.56,447.15z"/>
	<path class="st2" d="M735.32,418.63h4.77c0.07,0,0.13,0.06,0.13,0.13v32.14c0,0.07-0.06,0.13-0.13,0.13h-4.77
		c-0.07,0-0.13-0.06-0.13-0.13v-32.14C735.19,418.68,735.25,418.63,735.32,418.63z"/>
	<path class="st2" d="M366.7,447.11h8.05c0.2,0,0.3,0.1,0.3,0.3v3.28c0,0.22-0.11,0.32-0.32,0.32c-9.72,0.06-15.83,0.06-18.33-0.01
		c-18.4-0.48-21.37-25.94-3.45-30.43c7.58-1.9,15.63,1.94,18.53,8.95c2.7,6.53,1.13,13.32-4.85,17.35
		c-0.06,0.04-0.07,0.11-0.04,0.17C366.62,447.09,366.66,447.11,366.7,447.11z M356.93,446.18c5.69-0.05,10.26-4.85,10.21-10.72
		c0,0,0,0,0,0c-0.05-5.87-4.7-10.59-10.39-10.54c-5.69,0.05-10.26,4.85-10.21,10.72c0,0,0,0,0,0
		C346.59,441.51,351.24,446.23,356.93,446.18z"/>
	<path class="st2" d="M483.84,451.78c-11.02-1.64-15.68-12.38-12-22.2c3.7-9.88,17.68-13.02,25.16-4.86
		c0.12,0.13,0.11,0.25-0.03,0.36l-3.76,2.76c-0.15,0.11-0.28,0.09-0.41-0.04c-2.45-2.59-5.27-3.45-8.46-2.59
		c-8.06,2.17-10.46,11.85-5.74,18.06c3.66,4.84,10.82,5.22,14.72,0.33c0.08-0.1,0.22-0.12,0.32-0.05l4.08,2.93
		c0.13,0.09,0.16,0.27,0.06,0.4c0,0.01-0.01,0.01-0.02,0.02C494.15,451.01,489.51,452.63,483.84,451.78z"/>
	<path class="st2" d="M769.42,448.12c-5.47-4.56-6.45-13.36-3.37-19.6c4.44-8.99,17.55-11.78,24.66-3.79
		c0.12,0.13,0.1,0.25-0.04,0.35l-3.76,2.75c-0.13,0.09-0.25,0.09-0.37-0.03c-3.09-3.07-6.55-3.72-10.38-1.97
		c-8.27,3.79-8.41,17.13,0.31,20.47c4.19,1.61,7.71,0.72,10.56-2.68c0.09-0.11,0.2-0.12,0.32-0.04l3.99,2.86
		c0.14,0.1,0.16,0.22,0.05,0.36C786.05,453.84,775.62,453.29,769.42,448.12z"/>
	<path class="st2" d="M271.04,450.79l13.02-30.11c0.03-0.06,0.09-0.1,0.15-0.1h4.43c0.07,0,0.13,0.04,0.15,0.1l12.9,30.13
		c0.04,0.08,0,0.18-0.09,0.21c-0.02,0.01-0.04,0.01-0.06,0.01h-5.79c-0.06,0-0.12-0.04-0.15-0.1l-2.77-6.68
		c-0.03-0.06-0.08-0.1-0.15-0.1h-12.91c-0.07,0-0.12,0.04-0.15,0.1l-2.63,6.68c-0.02,0.06-0.09,0.1-0.15,0.1l-5.67-0.03
		c-0.09,0-0.16-0.07-0.16-0.16C271.02,450.83,271.03,450.81,271.04,450.79z M281.61,439.52c-0.03,0.08,0.01,0.16,0.08,0.19
		c0.02,0.01,0.04,0.01,0.05,0.01l8.97,0.03c0.08,0,0.15-0.07,0.15-0.15c0-0.02,0-0.03-0.01-0.05l-4.44-11.8
		c-0.03-0.08-0.11-0.11-0.19-0.08c-0.04,0.01-0.07,0.05-0.08,0.08L281.61,439.52z"/>
	<circle class="st2" cx="443.98" cy="423.77" r="3.23"/>
	<circle class="st2" cx="695.45" cy="423.77" r="3.22"/>
	<path class="st2" d="M858.68,434.58c0.01-0.13-0.09-0.24-0.22-0.24c0,0-0.01,0-0.01,0h-3.78c-0.16,0-0.25-0.08-0.25-0.25v-3.32
		c0-0.25,0.12-0.37,0.37-0.37h3.64c0.13,0,0.2-0.07,0.2-0.2l-0.06-5.31c0-0.25,0.13-0.38,0.38-0.38h4.56c0.21,0,0.38,0.17,0.38,0.38
		c0,0,0,0,0,0l-0.06,5.31c0,0.13,0.07,0.2,0.2,0.2h4.88c0.32,0,0.48,0.16,0.48,0.47l0.03,3.18c0,0.19-0.09,0.28-0.28,0.28h-5.02
		c-0.19,0-0.28,0.09-0.28,0.28c0.02,3.31,0.03,6.6,0.03,9.88c0,3.4,3.04,3.95,5.33,2.27c0.07-0.05,0.16-0.03,0.21,0.04
		c0.02,0.03,0.03,0.06,0.03,0.09l-0.08,3.81c0,0.14-0.07,0.23-0.21,0.28c-4.44,1.42-9.94,0.86-10.37-4.94
		C858.52,442.2,858.48,438.38,858.68,434.58z"/>
	<path class="st2" d="M395.69,448.47c0-0.09-0.07-0.17-0.17-0.18c-0.06,0-0.12,0.03-0.15,0.08c-2.05,3.27-6.4,3.74-9.73,2.51
		c-5.94-2.21-5.24-9.72,0.52-11.59c2.71-0.88,5.81-1.21,9.28-0.98c0.15,0.01,0.28-0.11,0.29-0.26c0-0.01,0-0.01,0-0.02
		c-0.04-5.63-7.09-4.76-10.01-2.22c-0.09,0.08-0.23,0.07-0.31-0.01l-2.36-2.38c-0.12-0.12-0.12-0.24,0-0.36
		c3.77-3.79,13.06-4.8,16.14,0.33c0.56,0.93,0.89,2.35,1,4.25c0.25,4.36,0.28,8.73,0.1,13.09c-0.01,0.19-0.11,0.29-0.3,0.29h-4.04
		c-0.16,0-0.25-0.08-0.25-0.25V448.47z M387.13,443.81c-2.93,4.44,8.91,6.23,8.25-1.28c-0.01-0.14-0.09-0.22-0.23-0.23
		C392.94,442.07,388.13,442.29,387.13,443.81z"/>
	<path class="st2" d="M526.5,440.68c0.02,6-4.98,10.89-11.17,10.91c0,0,0,0,0,0c-6.19,0.02-11.23-4.83-11.25-10.83
		c-0.02-6,4.98-10.89,11.17-10.91c0,0,0,0,0,0C521.45,429.83,526.48,434.68,526.5,440.68z M515.3,447.14
		c3.34-0.01,6.04-2.88,6.03-6.43v0c-0.01-3.55-2.72-6.41-6.06-6.41c0,0,0,0,0,0c-3.34,0.01-6.04,2.88-6.03,6.43c0,0,0,0,0,0
		C509.25,444.28,511.96,447.15,515.3,447.14z"/>
	<path class="st2" d="M540.43,433.18c2.01-2.66,4.6-3.7,7.76-3.13c2.22,0.4,3.85,1.49,4.71,3.56c0.04,0.1,0.15,0.14,0.25,0.1
		c0.04-0.02,0.07-0.04,0.09-0.08c1.54-2.79,4.32-3.99,7.49-3.62c4.17,0.48,6.31,3.15,6.42,8.01c0.1,4.24,0.12,8.48,0.05,12.71
		c0,0.18-0.15,0.33-0.34,0.33h-4.55c-0.17,0-0.25-0.09-0.25-0.26c0.02-4.05,0.01-8.09-0.03-12.13c-0.03-2.93-1.75-4.91-4.78-4.19
		c-2.76,0.65-3.26,2.95-3.32,5.64c-0.07,3.27-0.04,6.68,0.09,10.23c0.02,0.47-0.21,0.7-0.68,0.7h-4.41c-0.14,0-0.25-0.11-0.25-0.25
		c-0.02-4.01-0.02-8.02-0.01-12c0.01-7.08-8-5.27-8.16,0.81c-0.1,3.7-0.1,7.42-0.02,11.14c0,0.2-0.09,0.3-0.29,0.3h-4.42
		c-0.25,0-0.37-0.12-0.37-0.37v-19.89c0-0.25,0.12-0.37,0.37-0.37h4.25c0.22,0,0.32,0.11,0.31,0.33l-0.09,2.38
		C540.25,433.31,540.31,433.34,540.43,433.18z"/>
	<path class="st2" d="M582.2,433.19c3.14-4.22,9.91-4.81,12.46,0.36c0.09,0.18,0.19,0.19,0.29,0.01c1.39-2.31,3.44-3.51,6.15-3.61
		c5.8-0.22,7.81,3.81,7.84,8.84c0.03,4.01,0.03,8.01,0.01,12c0,0.14-0.11,0.25-0.25,0.25h-4.65c-0.17,0-0.26-0.09-0.26-0.26
		c0.01-4.05,0.01-8.1,0-12.15c0-1.85-0.76-3.75-2.78-4.15c-4.08-0.79-5.33,2.24-5.31,5.71c0.02,3.53,0.01,7.06-0.02,10.59
		c0,0.13-0.11,0.24-0.25,0.24h-4.76c-0.16,0-0.24-0.08-0.24-0.24c-0.03-4.35-0.03-8.69-0.01-13.02c0.02-4.31-5.52-4.4-7.34-1.39
		c-1.6,2.65-0.95,11.11-0.81,14.34c0.01,0.21-0.09,0.31-0.3,0.31h-4.44c-0.25,0-0.37-0.12-0.37-0.37v-19.89
		c0-0.25,0.12-0.37,0.37-0.37h4.26c0.22,0,0.32,0.11,0.31,0.33l-0.12,2.38C581.98,433.37,582.05,433.4,582.2,433.19z"/>
	<path class="st2" d="M623.93,450.54c-8.83-3.98-8.29-16.64,0.74-19.91c6.27-2.27,12.42,0.86,13.44,7.64
		c0.2,1.36,0.28,2.71,0.23,4.05c-0.01,0.2-0.17,0.36-0.37,0.36h-14.89c-0.21,0-0.29,0.1-0.27,0.31c0.8,5.62,7.54,5.8,10.69,2.04
		c0.13-0.15,0.27-0.17,0.43-0.05l3.29,2.45c0.13,0.09,0.14,0.2,0.03,0.32C633.94,451.47,628.46,452.58,623.93,450.54z
		 M622.94,438.78l10.28-0.05c0.05,0,0.09-0.04,0.09-0.09c0,0,0,0,0-0.01l0-0.06c-0.02-2.63-2.28-4.75-5.07-4.74h-0.38
		c-2.79,0.01-5.03,2.16-5.02,4.79c0,0,0,0,0,0l0,0.06C622.85,438.74,622.89,438.78,622.94,438.78z"/>
	<path class="st2" d="M652.71,433.36c0,0.06,0.04,0.12,0.1,0.12c0.04,0,0.09-0.02,0.11-0.06c1.31-2.16,5.13-4.85,7.57-3.01
		c0.13,0.1,0.2,0.24,0.2,0.4l-0.03,3.9c0,0.29-0.15,0.41-0.44,0.34c-4.49-0.96-7.45,1.2-7.42,5.63c0.02,3.37,0.02,6.73-0.01,10.09
		c0,0.17-0.09,0.25-0.26,0.25h-4.7c-0.2,0-0.3-0.1-0.3-0.3l0.02-20.04c0-0.19,0.1-0.29,0.29-0.29h4.67c0.22,0,0.32,0.11,0.31,0.33
		L652.71,433.36z"/>
	<path class="st2" d="M668.48,446.73c-2.4-3.53-2.3-8.9,0.26-12.41c3.79-5.19,11.63-5.85,16.38-1.62c0.14,0.12,0.14,0.25,0.01,0.37
		l-3.26,3.18c-0.1,0.09-0.25,0.09-0.34,0c0,0-0.01-0.01-0.01-0.01c-5.2-6.29-13.38,3.54-7.91,9.03c2.36,2.37,5.68,2.54,8.13,0.14
		c0.1-0.1,0.2-0.1,0.29,0l3.13,3.24c0.1,0.11,0.09,0.21-0.03,0.3C679.68,452.88,672.28,452.34,668.48,446.73z"/>
	<path class="st2" d="M720.6,448.32c-0.18,0.08-0.3,0.23-0.35,0.44c-0.04,0.16-0.12,0.3-0.24,0.41c-2.57,2.36-5.58,2.96-9.04,1.78
		c-6.1-2.08-5.52-9.87,0.32-11.66c2.86-0.87,5.94-1.2,9.25-0.99c0.16,0.01,0.25-0.07,0.27-0.23c0.35-5.68-7.1-4.7-9.95-2.23
		c-0.1,0.08-0.24,0.07-0.32-0.01l-2.36-2.41c-0.12-0.12-0.12-0.24,0-0.36c3.77-3.77,13.09-4.77,16.14,0.35
		c0.55,0.92,0.88,2.34,0.99,4.24c0.25,4.36,0.28,8.73,0.1,13.1c-0.01,0.19-0.11,0.29-0.3,0.29h-4.04c-0.16,0-0.25-0.08-0.25-0.25
		v-2.32c0-0.09-0.07-0.16-0.16-0.16C720.65,448.31,720.62,448.31,720.6,448.32z M712.27,443.81c-2.93,4.44,8.91,6.24,8.25-1.29
		c-0.01-0.14-0.09-0.21-0.23-0.23C718.15,442.07,713.27,442.3,712.27,443.81z"/>
	<path class="st2" d="M804.67,450.54c-8.83-3.98-8.29-16.64,0.74-19.91c6.27-2.27,12.42,0.86,13.44,7.64
		c0.2,1.36,0.28,2.71,0.23,4.05c-0.01,0.2-0.17,0.36-0.37,0.36h-14.89c-0.21,0-0.29,0.1-0.27,0.31c0.8,5.62,7.54,5.8,10.69,2.04
		c0.13-0.15,0.27-0.17,0.43-0.05l3.29,2.45c0.13,0.09,0.14,0.2,0.03,0.32C814.68,451.47,809.2,452.58,804.67,450.54z M803.62,438.83
		l10.35-0.13c0.05,0,0.09-0.04,0.09-0.09v-0.05c-0.03-2.64-2.36-4.75-5.2-4.71c0,0,0,0,0,0h-0.26c-2.84,0.03-5.12,2.2-5.08,4.84
		c0,0,0,0,0,0v0.05C803.52,438.78,803.57,438.83,803.62,438.83C803.62,438.83,803.62,438.83,803.62,438.83z"/>
	<path class="st2" d="M832.92,433.27c4.23-5.92,13.36-3.73,13.6,3.74c0.1,3.27,0.1,7.88,0.01,13.81c0,0.14-0.08,0.22-0.22,0.22
		h-4.64c-0.14,0-0.26-0.11-0.26-0.26c0,0,0,0,0,0c0-4.02,0-8.02-0.02-12.01c-0.02-4.79-5.56-6.16-7.73-2.17
		c-0.4,0.74-0.6,1.88-0.59,3.43c0,3.58,0,7.16-0.02,10.74c0,0.17-0.09,0.26-0.26,0.26h-4.61c-0.22,0-0.32-0.11-0.32-0.33
		l-0.07-19.99c0-0.17,0.13-0.3,0.29-0.3c0,0,0,0,0,0h4.19c0.24,0,0.44,0.2,0.44,0.44c0,0,0,0.01,0,0.01l-0.04,2.33
		C832.67,433.48,832.75,433.5,832.92,433.27z"/>
	<path class="st2" d="M883.22,450.52c-8.74-3.98-8.28-16.62,0.78-19.9c2.47-0.89,4.85-0.97,7.15-0.22c5.44,1.78,6.45,6.77,6.6,11.82
		c0.01,0.25-0.19,0.45-0.43,0.46c0,0-0.01,0-0.01,0h-14.9c-0.21,0-0.29,0.1-0.27,0.31c0.8,5.62,7.54,5.8,10.69,2.04
		c0.13-0.15,0.27-0.17,0.43-0.05l3.29,2.46c0.13,0.09,0.14,0.2,0.03,0.32C893.25,451.48,887.76,452.59,883.22,450.52z
		 M882.15,438.74l10.36,0.04c0.05,0,0.09-0.04,0.09-0.09v-0.05c0.01-2.64-2.28-4.78-5.12-4.79h-0.27c-2.84-0.01-5.15,2.12-5.16,4.75
		c0,0,0,0,0,0v0.05C882.06,438.7,882.1,438.74,882.15,438.74z"/>
	<path class="st2" d="M911.55,433.36c0,0.06,0.04,0.12,0.1,0.12c0.04,0,0.09-0.02,0.11-0.06c1.25-2.08,5.26-4.96,7.59-2.99
		c0.11,0.1,0.17,0.22,0.17,0.37l-0.03,3.89c0,0.31-0.16,0.44-0.47,0.37c-4.24-0.94-7.41,1.1-7.39,5.4
		c0.02,3.44,0.02,6.88-0.01,10.31c0,0.17-0.09,0.26-0.26,0.26h-4.66c-0.17,0-0.26-0.09-0.26-0.27l0.01-20.11
		c0-0.17,0.09-0.26,0.26-0.26h4.64c0.22,0,0.32,0.11,0.31,0.33L911.55,433.36z"/>
	<path class="st2" d="M441.7,430.41h4.6c0.12,0,0.22,0.1,0.22,0.22v20.18c0,0.12-0.1,0.22-0.22,0.22h-4.6
		c-0.12,0-0.22-0.1-0.22-0.22v-20.18C441.48,430.51,441.58,430.41,441.7,430.41z"/>
	<path class="st2" d="M693.17,430.41h4.6c0.12,0,0.22,0.1,0.22,0.22v20.18c0,0.12-0.1,0.22-0.22,0.22h-4.6
		c-0.12,0-0.22-0.1-0.22-0.22v-20.18C692.95,430.51,693.05,430.41,693.17,430.41z"/>
	<path class="st2" d="M323.25,438.76h10.05c0.14,0,0.26,0.11,0.26,0.26v3.42c0,0.14-0.11,0.26-0.26,0.26h-10.05
		c-0.14,0-0.26-0.11-0.26-0.26v-3.42C322.99,438.87,323.11,438.76,323.25,438.76z"/>
</g>
</svg>
