<svg width="200" height="200" viewBox="0 0 200 200" fill="none" xmlns="http://www.w3.org/2000/svg">
<g id="Group 39">
<g id="Rectangle 24" filter="url(#filter0_d_250_920)">
<rect x="20" y="16" width="160" height="160" rx="30" fill="white"/>
</g>
<g id="Group">
<path id="Vector" d="M100 63.6306C102.836 63.6306 105.135 61.3317 105.135 58.496C105.135 55.6602 102.836 53.3613 100 53.3613C97.1642 53.3613 94.8654 55.6602 94.8654 58.496C94.8654 61.3317 97.1642 63.6306 100 63.6306Z" fill="#11514B"/>
<path id="Vector_2" d="M100.77 70.9473C105.006 70.0488 115.276 58.881 118.87 55.5435C119.127 55.2867 119.64 55.1584 119.897 55.4151L127.47 59.6512C127.727 59.7795 127.727 60.0363 127.599 60.293C127.599 60.293 127.599 60.4214 127.47 60.4214C119.512 68.1233 111.553 75.5685 103.338 83.0137C100.514 85.581 98.588 85.7094 95.764 83.1421C87.5486 75.6969 79.4615 68.1233 71.5029 60.4214C71.2462 60.1646 71.2462 59.9079 71.5029 59.6512L71.6312 59.5228L79.5899 55.2867C79.8466 55.1584 80.3601 55.1584 80.6168 55.5435L95.6356 69.5353C97.176 70.819 98.8448 71.3324 100.77 70.9473Z" fill="#0C5049"/>
<path id="Vector_3" d="M156.096 41.4233C156.096 41.0382 155.839 40.7815 155.454 40.7815C118.356 40.268 81.2586 40.3964 44.161 40.9098C43.7759 40.9098 43.5191 41.1666 43.5191 41.5517V61.5767L43.6475 153.23C43.6475 153.615 43.9042 153.872 44.2893 153.872L155.839 154C156.224 154 156.481 153.743 156.481 153.358V59.3945L156.096 41.4233ZM148.907 145.913C148.907 146.298 148.651 146.555 148.265 146.555H51.0927C50.7076 146.555 50.4509 146.298 50.4509 145.913L50.3225 63.7589L50.5792 48.6118C50.5792 48.2267 50.836 47.9699 51.2211 47.9699L148.137 48.2267C148.522 48.2267 148.779 48.4834 148.779 48.8685V57.7257V145.913H148.907Z" fill="#054C46"/>
<path id="Vector_4" d="M100.128 91.2288L131.193 62.6033C131.45 62.3466 131.835 62.3466 132.22 62.4749C134.915 64.4004 137.098 66.711 138.766 69.5351C138.895 69.9201 138.895 70.3052 138.638 70.562C130.551 78.0072 122.592 85.4524 114.89 93.026C112.323 95.5933 112.323 98.1606 115.019 100.728C122.849 108.173 130.679 115.618 138.51 122.935C138.766 123.192 138.895 123.577 138.638 123.834L131.963 130.509C131.706 130.765 131.193 130.765 130.936 130.509L100.257 101.755C100 101.498 99.6149 101.498 99.3582 101.755L68.5504 130.38C68.2937 130.637 67.7802 130.637 67.5235 130.38L60.9769 124.09C60.7201 123.834 60.7201 123.32 60.9769 122.935C68.9355 115.49 76.7658 108.173 84.4678 100.856C87.1635 98.289 87.1635 95.5933 84.4678 93.026C76.5091 85.4524 68.5504 77.8788 60.5918 70.3052C60.2067 70.0485 60.2067 69.5351 60.5918 69.15L66.2399 62.9884C66.8817 62.3466 67.9086 62.2182 68.5504 62.86L99.2298 91.2288C99.4866 91.4856 99.8716 91.4856 100.128 91.2288Z" fill="#C6B089"/>
<path id="Vector_5" d="M127.47 132.178C127.727 132.435 127.727 132.82 127.47 133.077C125.288 134.874 122.721 136.286 119.768 137.313C119.383 137.441 118.998 137.313 118.741 137.056C111.039 129.739 106.033 124.99 103.723 123.064C101.027 120.754 98.3312 120.754 95.6355 123.193C90.6293 127.814 85.7514 132.435 80.8735 137.056C80.6168 137.313 80.1033 137.441 79.8466 137.313L71.7595 132.948C71.5028 132.82 71.5028 132.563 71.6312 132.307L71.7595 132.178C79.9749 124.348 88.3187 116.646 96.6625 108.944C99.3581 106.377 102.182 107.917 104.621 110.228C111.425 116.774 119.126 124.091 127.47 132.178Z" fill="#054C46"/>
<path id="Vector_6" d="M100 125.76L108.601 134.36C108.729 134.489 108.729 134.745 108.601 134.874L100 143.474C99.8717 143.603 99.6149 143.603 99.4866 143.474L90.8861 134.874C90.7577 134.745 90.7577 134.489 90.8861 134.36L99.4866 125.76C99.6149 125.631 99.8717 125.631 100 125.76Z" fill="#054C46"/>
</g>
</g>
<defs>
<filter id="filter0_d_250_920" x="0" y="0" width="200" height="200" filterUnits="userSpaceOnUse" color-interpolation-filters="sRGB">
<feFlood flood-opacity="0" result="BackgroundImageFix"/>
<feColorMatrix in="SourceAlpha" type="matrix" values="0 0 0 0 0 0 0 0 0 0 0 0 0 0 0 0 0 0 127 0" result="hardAlpha"/>
<feOffset dy="4"/>
<feGaussianBlur stdDeviation="10"/>
<feComposite in2="hardAlpha" operator="out"/>
<feColorMatrix type="matrix" values="0 0 0 0 0 0 0 0 0 0 0 0 0 0 0 0 0 0 0.4 0"/>
<feBlend mode="normal" in2="BackgroundImageFix" result="effect1_dropShadow_250_920"/>
<feBlend mode="normal" in="SourceGraphic" in2="effect1_dropShadow_250_920" result="shape"/>
</filter>
</defs>
</svg>
