<svg width="160" height="160" viewBox="0 0 160 160" fill="none" xmlns="http://www.w3.org/2000/svg">
<g id="Group 36">
<rect id="Rectangle 21" width="160" height="160" rx="30" fill="white"/>
<path id="Vector" fill-rule="evenodd" clip-rule="evenodd" d="M115.811 85.4119C113.369 83.7322 110.352 83.1083 107.575 84.74L87.415 96.4982C81.2857 100.098 73.4326 98.0339 69.8412 91.8909L61.8444 78.2131C59.7853 74.7096 60.9824 70.1983 64.4781 68.1347C67.9737 66.071 72.4749 67.2708 74.5339 70.7742L80.7111 81.4286C81.1899 82.1964 82.1476 82.4844 82.9617 82.0525L84.2067 81.3326L118.157 61.7037C122.419 58.1522 121.988 51.3373 116.864 48.5058L58.9713 24.0776C54.3743 21.4381 48.676 23.8857 47.2873 28.8289C47.0958 29.5488 47 30.2687 47 31.0365V129.037C47 135.9 54.4222 140.219 60.4078 136.812L116.098 104.561C117.535 103.793 118.732 102.641 119.594 101.153C121.701 97.506 121.413 92.8507 119.354 89.2513C118.445 87.7636 117.247 86.4198 115.811 85.4119Z" fill="#D0AF72"/>
</g>
</svg>
