<?xml version="1.0" encoding="UTF-8" standalone="no"?>
<!DOCTYPE svg PUBLIC "-//W3C//DTD SVG 1.1//EN" "http://www.w3.org/Graphics/SVG/1.1/DTD/svg11.dtd">
<svg xmlns="http://www.w3.org/2000/svg" version="1.1" viewBox="0.00 0.00 1080.00 1080.00">
<path fill="#751332" d="
  M 517.15 327.27
  Q 472.08 282.13 426.88 237.13
  Q 422.78 233.05 422.64 226.24
  Q 422.21 204.12 423.24 163.50
  C 423.59 149.90 426.22 139.58 433.21 127.51
  C 453.43 92.57 485.76 72.85 525.08 66.04
  C 535.82 64.18 547.59 65.02 558.62 64.99
  C 583.95 64.94 607.85 79.89 624.59 97.92
  Q 643.40 118.18 647.61 145.36
  C 648.42 150.60 650.97 157.09 650.98 161.81
  Q 651.04 200.14 650.98 238.46
  A 1.04 1.02 67.9 0 1 650.68 239.19
  L 633.44 256.44
  A 0.45 0.45 0.0 0 1 632.68 256.12
  Q 632.95 215.62 632.56 175.01
  C 632.32 149.86 626.59 122.68 607.05 104.96
  Q 585.73 85.62 556.91 82.30
  C 547.97 81.28 537.80 82.37 528.19 83.35
  Q 521.97 83.98 516.90 85.47
  C 483.49 95.35 455.39 116.19 443.34 150.06
  C 440.97 156.74 439.66 163.03 440.71 170.06
  C 443.54 188.93 459.50 206.77 479.60 207.17
  C 506.56 207.70 527.87 194.09 544.16 173.40
  C 552.59 162.69 559.89 167.99 559.82 179.81
  Q 559.41 253.66 559.18 327.50
  C 559.18 329.69 559.61 330.17 557.93 331.85
  Q 549.45 340.39 540.84 348.23
  A 1.34 1.34 0.0 0 1 539.10 348.28
  C 531.12 341.81 524.03 334.16 517.15 327.27
  Z"
/>
<path fill="#751332" d="
  M 817.07 506.92
  C 788.65 478.29 759.73 449.79 732.17 420.33
  C 723.78 411.37 716.90 408.54 707.37 418.37
  Q 645.11 482.60 581.67 545.72
  A 0.25 0.24 -22.5 0 1 581.25 545.55
  Q 581.24 494.36 581.26 443.03
  C 581.27 430.11 581.31 427.34 590.59 418.09
  Q 649.96 358.96 708.65 299.15
  C 715.98 291.67 722.49 293.11 729.27 299.98
  Q 803.94 375.61 879.02 450.84
  Q 888.79 460.63 892.85 465.27
  C 955.33 536.68 953.50 639.31 888.99 708.85
  Q 886.84 711.17 874.97 723.11
  Q 739.67 859.12 604.07 994.83
  C 599.09 999.82 589.00 1012.47 583.24 1013.58
  A 0.70 0.70 0.0 0 1 582.50 1013.22
  Q 581.21 1010.76 581.21 1009.00
  Q 581.40 844.87 580.95 680.75
  C 580.92 670.47 581.24 663.45 588.37 656.37
  Q 650.96 594.21 712.98 531.48
  C 720.58 523.79 724.76 528.97 728.93 536.57
  C 745.57 566.87 747.91 612.28 723.48 640.01
  C 717.99 646.24 709.29 652.19 702.62 657.86
  Q 660.81 693.44 661.15 747.70
  C 661.24 760.81 664.76 775.50 664.36 789.78
  Q 664.00 802.46 663.53 815.05
  A 0.28 0.28 0.0 0 0 664.00 815.26
  C 669.48 810.28 674.91 805.38 680.22 800.12
  Q 778.92 702.32 827.98 652.24
  C 858.25 621.35 864.94 575.51 842.55 537.70
  C 835.28 525.43 828.18 518.11 817.07 506.92
  Z"
/>
<path fill="#878888" d="
  M 201.48 450.57
  C 250.20 401.34 299.34 352.54 347.66 302.91
  C 360.03 290.20 366.36 293.98 376.89 305.35
  C 408.10 339.04 429.31 361.35 458.91 386.33
  C 484.75 408.14 500.63 436.11 500.01 470.49
  C 499.82 480.93 497.22 492.78 497.23 504.07
  Q 497.25 520.42 498.08 536.75
  Q 498.14 537.90 497.82 538.94
  Q 497.66 539.47 497.15 539.69
  L 492.29 541.76
  A 0.59 0.59 0.0 0 1 491.54 541.50
  Q 486.12 532.02 480.92 526.83
  Q 437.32 483.18 394.00 439.25
  Q 375.31 420.29 369.20 414.51
  C 360.63 406.39 354.85 412.20 348.43 419.44
  Q 332.83 437.05 311.28 456.07
  Q 300.21 465.84 311.11 476.64
  Q 409.30 573.78 493.48 658.77
  C 497.09 662.42 497.90 666.19 497.95 671.65
  Q 498.12 688.58 497.95 705.50
  C 497.70 728.86 498.08 752.22 497.97 775.58
  Q 497.97 776.21 497.41 776.52
  L 492.98 778.93
  A 0.68 0.67 59.3 0 1 492.09 778.70
  Q 486.18 769.32 480.93 764.07
  Q 367.25 650.25 253.88 536.12
  C 248.56 530.76 242.82 526.64 237.51 535.36
  C 214.84 572.52 221.16 618.67 249.43 650.82
  Q 254.92 657.06 262.92 665.08
  Q 347.62 749.93 432.35 834.76
  Q 439.56 841.97 446.83 848.55
  C 463.99 864.07 485.59 879.84 494.47 901.20
  C 503.19 922.18 499.92 946.02 498.65 967.83
  C 497.77 982.90 497.97 997.45 498.01 1012.30
  A 0.34 0.34 0.0 0 1 497.44 1012.54
  C 394.69 911.53 291.14 811.18 191.03 707.48
  C 184.68 700.91 177.90 694.10 172.63 687.23
  C 121.64 620.78 132.56 524.77 187.50 464.88
  Q 189.81 462.36 201.48 450.57
  Z"
/>
</svg>
