<?xml version="1.0" encoding="UTF-8" standalone="no"?>
<!DOCTYPE svg PUBLIC "-//W3C//DTD SVG 1.1//EN" "http://www.w3.org/Graphics/SVG/1.1/DTD/svg11.dtd">
<svg xmlns="http://www.w3.org/2000/svg" version="1.1" viewBox="0.00 0.00 1920.00 1080.00">
<path fill="#751332" d="
  M 1605.16 461.04
  Q 1590.80 446.68 1576.44 432.31
  C 1575.62 431.48 1575.28 429.23 1575.27 427.82
  Q 1575.01 404.54 1575.54 398.55
  C 1577.32 378.51 1600.08 362.60 1618.27 359.73
  C 1625.37 358.61 1634.81 358.22 1641.81 360.35
  C 1657.09 365.02 1668.54 377.42 1671.92 392.91
  C 1674.53 404.84 1673.36 420.33 1673.20 433.03
  A 2.26 2.25 67.8 0 1 1672.54 434.60
  L 1665.81 441.28
  A 0.22 0.22 0.0 0 1 1665.43 441.12
  Q 1665.56 422.74 1665.54 405.51
  C 1665.52 393.35 1661.29 381.48 1651.63 373.87
  C 1630.66 357.35 1594.59 369.48 1584.98 393.46
  Q 1582.14 400.53 1583.56 406.34
  C 1585.31 413.54 1592.03 420.20 1600.01 420.15
  C 1613.20 420.07 1619.97 413.98 1628.30 404.84
  C 1629.85 403.13 1632.25 402.37 1633.56 404.70
  C 1634.73 406.79 1634.03 410.27 1634.02 412.01
  Q 1633.96 442.33 1634.02 472.66
  Q 1634.02 473.23 1633.61 473.61
  L 1626.21 480.59
  Q 1625.56 481.21 1624.90 480.61
  C 1617.96 474.42 1609.96 465.84 1605.16 461.04
  Z"
/>
<path fill="#751332" d="
  M 1746.96 551.29
  C 1733.18 537.69 1719.63 523.76 1706.13 509.86
  C 1703.57 507.22 1700.62 508.00 1698.17 510.49
  Q 1671.31 537.75 1643.96 565.28
  A 0.46 0.46 0.0 0 1 1643.17 564.95
  Q 1643.70 541.62 1643.19 518.06
  Q 1643.13 515.34 1645.85 512.60
  Q 1672.41 485.80 1698.97 458.79
  A 4.53 4.53 0.0 0 1 1705.41 458.78
  Q 1737.35 491.01 1770.08 523.67
  C 1789.32 542.87 1799.73 566.05 1796.00 593.25
  C 1793.33 612.66 1783.63 627.50 1769.73 641.49
  Q 1707.76 703.85 1645.20 766.70
  A 1.01 1.01 0.0 0 1 1643.49 765.86
  C 1643.65 764.68 1643.21 763.62 1643.22 762.57
  Q 1643.63 691.91 1643.14 621.25
  C 1643.12 618.51 1644.12 615.57 1646.24 613.44
  Q 1673.64 586.01 1701.13 558.43
  A 2.18 2.17 -52.2 0 1 1703.79 558.09
  Q 1705.26 558.96 1706.44 561.11
  C 1713.60 574.12 1714.88 592.45 1705.48 604.78
  Q 1703.73 607.08 1698.30 611.41
  C 1685.91 621.31 1678.03 633.95 1677.72 649.99
  C 1677.59 656.80 1679.06 664.41 1678.97 670.95
  Q 1678.91 675.95 1678.55 680.75
  A 0.59 0.59 0.0 0 0 1679.55 681.21
  Q 1712.68 648.31 1745.67 615.17
  C 1750.64 610.18 1754.93 605.17 1757.68 598.86
  C 1765.24 581.57 1760.00 564.15 1746.96 551.29
  Z"
/>
<path fill="#878888" d="
  M 1503.13 613.13
  C 1529.38 639.47 1555.54 665.86 1581.96 692.04
  C 1593.30 703.27 1608.49 712.39 1608.46 730.51
  C 1608.45 742.39 1607.33 753.92 1607.60 766.04
  A 0.24 0.23 21.5 0 1 1607.20 766.21
  C 1563.37 722.83 1518.97 679.99 1476.22 635.51
  Q 1467.45 626.38 1463.90 620.58
  C 1448.16 594.81 1451.90 560.25 1469.49 536.84
  Q 1473.03 532.12 1482.99 522.10
  Q 1514.05 490.85 1545.05 459.55
  C 1548.40 456.16 1551.14 457.98 1554.02 460.88
  C 1566.58 473.52 1578.12 486.37 1591.75 497.99
  Q 1610.37 513.86 1608.24 537.66
  C 1607.37 547.29 1607.18 552.77 1607.68 560.74
  Q 1607.79 562.51 1606.99 563.34
  A 1.56 1.56 0.0 0 1 1604.62 563.18
  Q 1600.66 557.79 1596.06 553.19
  Q 1575.45 532.63 1554.98 511.94
  C 1550.76 507.67 1548.79 505.50 1544.14 510.63
  Q 1536.55 519.00 1526.99 527.74
  C 1523.33 531.09 1525.48 533.89 1528.40 536.80
  Q 1567.36 575.58 1606.03 614.66
  A 5.06 5.04 22.7 0 1 1607.50 618.22
  L 1607.50 664.26
  A 1.42 1.42 0.0 0 1 1604.98 665.16
  Q 1601.92 661.41 1598.14 657.61
  Q 1554.36 613.54 1510.62 569.42
  C 1507.33 566.11 1504.13 562.61 1500.29 559.42
  Q 1498.96 558.32 1497.61 559.41
  Q 1494.96 561.54 1493.25 565.62
  C 1486.30 582.18 1490.56 600.52 1503.13 613.13
  Z"
/>
<path fill="#751332" d="
  M 1238.99 509.05
  C 1261.85 508.57 1285.98 507.53 1286.22 537.89
  Q 1286.32 550.19 1286.22 562.49
  Q 1286.22 562.99 1285.71 562.99
  Q 1233.56 563.01 1181.43 563.00
  C 1175.02 563.00 1172.97 561.83 1170.01 556.49
  A 0.41 0.40 28.1 0 0 1169.25 556.72
  C 1169.96 564.37 1169.11 575.55 1164.33 581.98
  C 1157.87 590.70 1143.93 591.49 1134.20 588.35
  Q 1133.75 588.21 1133.75 587.74
  L 1133.75 574.50
  Q 1133.75 573.94 1134.28 574.12
  C 1144.76 577.65 1145.44 572.06 1145.53 563.68
  Q 1145.79 539.32 1145.77 514.99
  A 0.49 0.49 0.0 0 1 1146.26 514.50
  L 1168.98 514.50
  A 0.49 0.48 0.0 0 1 1169.47 514.98
  Q 1169.56 527.59 1169.50 540.04
  C 1169.48 544.49 1171.83 546.74 1176.19 546.75
  Q 1219.12 546.83 1262.05 546.71
  Q 1262.54 546.71 1262.58 546.23
  Q 1263.31 537.30 1262.01 531.52
  C 1260.74 525.85 1256.26 524.53 1250.69 524.52
  Q 1232.34 524.47 1214.01 524.51
  A 0.51 0.51 0.0 0 1 1213.50 524.00
  L 1213.50 509.64
  A 1.21 1.19 67.8 0 1 1213.85 508.79
  L 1240.12 482.18
  A 1.45 1.42 21.8 0 1 1241.15 481.75
  L 1264.16 481.75
  Q 1265.06 481.75 1264.43 482.39
  L 1238.74 508.45
  Q 1238.13 509.06 1238.99 509.05
  Z"
/>
<path fill="#751332" d="
  M 431.85 556.27
  A 0.38 0.38 0.0 0 0 431.12 556.24
  L 428.90 562.52
  Q 428.73 563.00 428.22 563.00
  L 292.25 563.00
  Q 291.75 563.00 291.75 562.50
  L 291.75 482.25
  Q 291.75 481.75 292.25 481.75
  L 315.00 481.75
  Q 315.50 481.75 315.50 482.25
  L 315.50 546.25
  A 0.50 0.50 0.0 0 0 316.00 546.75
  L 406.73 546.75
  A 0.43 0.43 0.0 0 0 407.16 546.34
  C 407.54 539.85 408.38 531.38 402.94 526.55
  C 394.62 519.17 380.33 522.62 376.00 533.13
  Q 375.84 533.50 375.44 533.50
  L 354.53 533.50
  A 0.56 0.56 0.0 0 1 353.97 532.89
  C 355.25 518.28 369.06 510.04 382.52 508.00
  C 406.02 504.45 429.95 513.48 431.25 540.68
  C 431.39 543.69 432.98 546.37 436.01 546.51
  Q 451.00 547.16 457.44 546.67
  C 462.93 546.25 463.47 542.08 463.47 537.22
  Q 463.47 526.12 463.52 514.99
  A 0.50 0.49 -0.0 0 1 464.02 514.50
  L 486.73 514.50
  Q 487.19 514.50 487.19 514.96
  Q 487.33 527.80 487.32 540.48
  C 487.32 545.82 490.51 546.67 495.26 546.74
  Q 503.18 546.86 511.09 546.70
  Q 511.76 546.69 511.76 546.02
  L 511.73 482.39
  Q 511.72 481.75 512.36 481.75
  L 534.75 481.75
  Q 535.25 481.75 535.25 482.25
  L 535.25 562.49
  A 0.51 0.51 0.0 0 1 534.74 563.00
  Q 515.68 563.00 496.44 563.00
  C 489.06 563.00 484.35 562.08 480.85 555.70
  A 0.39 0.39 0.0 0 0 480.25 555.59
  C 469.59 565.01 456.53 563.08 441.32 563.02
  C 436.18 563.00 433.07 561.21 431.85 556.27
  Z"
/>
<rect fill="#751332" x="-9.12" y="-6.63" transform="translate(465.38,488.38) rotate(-0.1)" width="18.24" height="13.26" rx="0.43"/>
<rect fill="#751332" x="-9.23" y="-6.63" transform="translate(488.48,488.37) rotate(-0.1)" width="18.46" height="13.26" rx="0.65"/>
<rect fill="#751332" x="557.75" y="481.76" width="23.52" height="81.24" rx="0.26"/>
<path fill="#751332" d="
  M 985.48 546.75
  L 1008.12 546.75
  Q 1008.74 546.75 1008.74 546.13
  L 1008.75 482.22
  Q 1008.75 481.75 1009.22 481.75
  L 1031.75 481.75
  Q 1032.25 481.75 1032.25 482.25
  L 1032.25 562.50
  A 0.50 0.50 0.0 0 1 1031.75 563.00
  L 887.25 563.00
  A 0.50 0.50 0.0 0 1 886.75 562.50
  L 886.75 482.25
  Q 886.75 481.75 887.25 481.75
  L 910.00 481.75
  Q 910.50 481.75 910.50 482.25
  L 910.50 546.13
  Q 910.50 546.75 911.13 546.75
  L 926.01 546.75
  Q 926.87 546.75 926.39 546.03
  Q 923.14 541.16 922.83 538.96
  C 920.10 519.83 933.41 508.32 951.18 507.41
  C 971.23 506.38 991.27 513.71 988.89 537.96
  Q 988.64 540.54 985.12 546.10
  Q 984.71 546.75 985.48 546.75
  Z
  M 949.94 545.81
  C 965.12 554.51 969.18 529.82 960.21 524.07
  C 955.87 521.29 949.13 522.81 947.17 527.96
  C 945.53 532.27 944.91 542.93 949.94 545.81
  Z"
/>
<rect fill="#751332" x="-9.20" y="-6.62" transform="translate(942.76,488.37) rotate(0.1)" width="18.40" height="13.24" rx="0.64"/>
<rect fill="#751332" x="-9.12" y="-6.63" transform="translate(965.87,488.37) rotate(-0.1)" width="18.24" height="13.26" rx="0.43"/>
<rect fill="#751332" x="1055.75" y="481.75" width="23.50" height="81.24" rx="0.27"/>
<rect fill="#751332" x="1147.00" y="481.75" width="21.26" height="13.26" rx="0.26"/>
<rect fill="#751332" x="786.31" y="484.85" width="21.44" height="13.40" rx="0.75"/>
<path fill="#751332" d="
  M 189.11 562.07
  C 177.52 557.46 165.49 553.47 159.11 541.64
  C 152.01 528.47 159.07 514.40 172.38 509.45
  C 190.10 502.85 211.23 509.34 214.21 530.26
  A 0.40 0.39 86.2 0 1 213.82 530.71
  L 196.13 530.96
  A 1.92 1.91 85.8 0 1 194.20 529.29
  C 193.35 522.82 184.74 519.78 181.20 526.14
  C 177.23 533.27 182.57 539.76 189.36 542.01
  Q 200.00 545.53 207.20 549.76
  C 219.87 557.23 219.44 576.19 208.71 584.96
  C 200.38 591.77 188.95 593.68 177.63 594.34
  C 144.70 596.28 125.97 584.54 125.94 549.82
  Q 125.94 549.25 126.51 549.25
  L 143.99 549.25
  A 0.50 0.50 0.0 0 1 144.49 549.75
  C 144.42 563.01 147.36 574.79 162.26 577.45
  Q 175.43 579.81 186.76 576.33
  C 192.93 574.44 197.05 565.23 189.11 562.07
  Z"
/>
<path fill="#751332" d="
  M 1338.31 556.70
  C 1338.94 565.37 1338.06 578.79 1330.62 584.86
  C 1323.36 590.78 1311.98 591.12 1303.31 588.49
  Q 1302.75 588.32 1302.75 587.74
  L 1302.75 574.50
  Q 1302.75 573.93 1303.29 574.11
  C 1313.73 577.68 1314.44 572.00 1314.53 563.68
  Q 1314.79 539.32 1314.77 514.99
  A 0.49 0.49 0.0 0 1 1315.26 514.50
  L 1337.98 514.50
  A 0.49 0.49 0.0 0 1 1338.47 514.98
  Q 1338.57 527.56 1338.49 539.99
  C 1338.47 543.84 1339.84 546.11 1343.76 546.43
  Q 1351.29 547.04 1358.84 546.66
  Q 1359.54 546.62 1359.13 546.06
  Q 1355.44 540.98 1355.22 538.27
  C 1353.72 519.72 1364.68 509.64 1381.80 507.56
  C 1404.59 504.78 1425.76 515.38 1421.16 541.68
  C 1418.72 555.64 1404.88 562.48 1391.17 562.71
  Q 1370.78 563.04 1350.36 563.00
  C 1344.54 562.99 1341.37 561.84 1339.18 556.50
  A 0.45 0.45 0.0 0 0 1338.31 556.70
  Z
  M 1397.07 531.30
  A 8.42 8.42 0.0 0 0 1388.65 522.88
  L 1387.33 522.88
  A 8.42 8.42 0.0 0 0 1378.91 531.30
  L 1378.91 538.94
  A 8.42 8.42 0.0 0 0 1387.33 547.36
  L 1388.65 547.36
  A 8.42 8.42 0.0 0 0 1397.07 538.94
  L 1397.07 531.30
  Z"
/>
<path fill="#751332" d="
  M 723.62 563.65
  C 733.53 579.83 716.45 589.60 703.39 592.48
  Q 687.31 596.03 670.99 593.55
  C 647.73 590.02 638.59 573.38 639.00 551.01
  Q 639.01 550.50 639.51 550.50
  L 658.48 550.50
  A 0.54 0.54 0.0 0 1 659.02 551.03
  C 659.14 562.97 662.43 574.39 675.75 577.21
  C 682.90 578.73 700.64 579.28 705.05 572.97
  C 708.30 568.33 705.35 563.35 699.93 563.10
  Q 693.85 562.82 688.82 559.34
  A 0.74 0.74 0.0 0 1 688.50 558.73
  L 688.50 544.00
  Q 688.50 543.41 689.06 543.57
  Q 699.88 546.57 709.31 546.69
  Q 723.76 546.87 767.53 546.70
  Q 768.00 546.70 768.00 546.23
  L 768.00 518.50
  Q 768.00 517.75 768.75 517.75
  L 789.50 517.75
  Q 790.00 517.75 790.00 518.25
  L 790.00 530.26
  A 0.46 0.46 0.0 0 0 790.81 530.56
  C 799.73 520.14 812.59 511.53 826.30 510.01
  C 842.89 508.17 864.67 514.48 864.92 535.07
  Q 865.08 548.80 864.97 562.51
  A 0.49 0.49 0.0 0 1 864.48 563.00
  L 723.98 563.00
  Q 723.22 563.00 723.62 563.65
  Z
  M 841.15 545.77
  C 840.93 536.96 842.28 526.46 830.00 526.18
  C 816.36 525.87 802.03 536.64 793.27 546.26
  A 0.29 0.29 0.0 0 0 793.49 546.75
  L 840.20 546.75
  Q 841.17 546.75 841.15 545.77
  Z"
/>
<path fill="#751332" d="
  M 233.12 588.49
  A 0.50 0.50 0.0 0 1 232.75 588.01
  L 232.75 574.50
  Q 232.75 573.93 233.29 574.11
  C 243.75 577.68 244.43 572.03 244.52 563.68
  Q 244.79 539.32 244.77 515.00
  A 0.50 0.50 0.0 0 1 245.27 514.50
  L 267.96 514.50
  Q 268.46 514.50 268.46 515.00
  Q 268.57 536.81 268.52 558.48
  C 268.50 563.23 268.08 568.92 267.29 572.88
  C 263.98 589.37 247.06 592.53 233.12 588.49
  Z"
/>
<rect fill="#751332" x="-10.62" y="-6.69" transform="translate(392.88,580.44) rotate(-0.4)" width="21.24" height="13.38" rx="0.49"/>
<rect fill="#751332" x="155.00" y="603.00" width="18.26" height="13.26" rx="0.52"/>
<rect fill="#751332" x="-9.24" y="-6.63" transform="translate(187.26,609.62) rotate(-0.1)" width="18.48" height="13.26" rx="0.67"/>
<rect fill="#751332" x="-9.12" y="-6.74" transform="translate(674.62,616.77) rotate(0.2)" width="18.24" height="13.48" rx="0.68"/>
<rect fill="#751332" x="-9.13" y="-6.75" transform="translate(697.63,616.75) rotate(-0.1)" width="18.26" height="13.50" rx="0.65"/>
<rect fill="#878888" x="201.24" y="632.01" width="10.26" height="65.98" rx="0.27"/>
<path fill="#878888" d="
  M 439.51 660.50
  L 439.48 632.63
  Q 439.48 632.00 440.12 632.00
  L 449.13 632.00
  Q 449.76 632.00 449.76 632.63
  L 449.75 697.47
  Q 449.75 698.00 449.22 698.00
  L 440.44 698.00
  Q 439.62 698.00 439.68 697.18
  L 439.99 693.20
  A 0.49 0.48 -26.3 0 0 439.10 692.90
  C 435.20 698.81 425.99 699.97 419.83 698.29
  C 397.67 692.23 400.75 655.85 424.60 655.00
  Q 432.64 654.71 438.99 660.73
  A 0.31 0.31 0.0 0 0 439.51 660.50
  Z
  M 427.6441 690.0795
  A 13.08 12.32 89.5 0 0 439.8495 676.8925
  A 13.08 12.32 89.5 0 0 427.4159 663.9205
  A 13.08 12.32 89.5 0 0 415.2105 677.1075
  A 13.08 12.32 89.5 0 0 427.6441 690.0795
  Z"
/>
<rect fill="#878888" x="1068.24" y="632.01" width="10.26" height="65.98" rx="0.27"/>
<path fill="#878888" d="
  M 317.99 690.00
  L 334.38 690.00
  Q 335.00 690.00 335.00 690.62
  L 335.00 697.29
  Q 335.00 697.95 334.35 697.95
  Q 304.68 698.13 297.02 697.93
  C 259.55 696.95 253.50 645.12 290.00 635.98
  C 305.43 632.12 321.83 639.92 327.73 654.21
  C 333.22 667.51 330.04 681.32 317.85 689.54
  A 0.25 0.25 0.0 0 0 317.99 690.00
  Z
  M 298.0989 688.1092
  A 21.65 20.97 89.5 0 0 318.8792 666.2770
  A 21.65 20.97 89.5 0 0 297.7211 644.8108
  A 21.65 20.97 89.5 0 0 276.9408 666.6430
  A 21.65 20.97 89.5 0 0 298.0989 688.1092
  Z"
/>
<path fill="#878888" d="
  M 556.49 699.52
  C 534.05 696.18 524.57 674.31 532.05 654.33
  C 539.59 634.22 568.04 627.82 583.27 644.44
  Q 583.64 644.84 583.20 645.17
  L 575.54 650.79
  Q 575.09 651.12 574.71 650.71
  Q 567.23 642.81 557.48 645.43
  C 541.06 649.85 536.19 669.55 545.79 682.21
  C 553.25 692.06 567.81 692.84 575.76 682.89
  A 0.49 0.48 -53.0 0 1 576.42 682.79
  L 584.72 688.75
  A 0.58 0.58 0.0 0 1 584.82 689.60
  Q 573.81 702.11 556.49 699.52
  Z"
/>
<path fill="#878888" d="
  M 1137.94 692.06
  C 1126.80 682.77 1124.80 664.85 1131.07 652.16
  C 1140.12 633.86 1166.80 628.17 1181.28 644.45
  Q 1181.64 644.85 1181.20 645.17
  L 1173.55 650.76
  Q 1173.15 651.05 1172.80 650.70
  Q 1163.35 641.33 1151.67 646.69
  C 1134.84 654.41 1134.55 681.56 1152.30 688.36
  Q 1165.10 693.27 1173.81 682.91
  Q 1174.10 682.57 1174.47 682.83
  L 1182.59 688.65
  Q 1183.02 688.96 1182.70 689.38
  C 1171.80 703.71 1150.56 702.59 1137.94 692.06
  Z"
/>
<path fill="#878888" d="
  M 123.21 697.50
  L 149.72 636.20
  A 0.33 0.33 0.0 0 1 150.03 636.00
  L 159.04 636.00
  A 0.33 0.33 0.0 0 1 159.35 636.20
  L 185.62 697.54
  A 0.33 0.33 0.0 0 1 185.32 698.00
  L 173.54 698.00
  A 0.33 0.33 0.0 0 1 173.24 697.80
  L 167.61 684.20
  A 0.33 0.33 0.0 0 0 167.31 684.00
  L 141.02 684.00
  A 0.33 0.33 0.0 0 0 140.72 684.21
  L 135.36 697.81
  A 0.33 0.33 0.0 0 1 135.05 698.02
  L 123.51 697.96
  A 0.33 0.33 0.0 0 1 123.21 697.50
  Z
  M 144.74 674.56
  A 0.30 0.30 0.0 0 0 145.02 674.97
  L 163.29 675.03
  A 0.30 0.30 0.0 0 0 163.57 674.63
  L 154.52 650.60
  A 0.30 0.30 0.0 0 0 153.96 650.60
  L 144.74 674.56
  Z"
/>
<circle fill="#878888" cx="475.32" cy="642.49" r="6.57"/>
<circle fill="#878888" cx="987.32" cy="642.49" r="6.56"/>
<path fill="#878888" d="
  M 1319.67 664.49
  A 0.47 0.47 0.0 0 0 1319.20 664.00
  L 1311.50 664.00
  Q 1311.00 664.00 1311.00 663.50
  L 1311.00 656.75
  Q 1311.00 656.00 1311.75 656.00
  L 1319.17 656.00
  Q 1319.58 656.00 1319.58 655.59
  L 1319.46 644.77
  Q 1319.46 644.00 1320.23 644.00
  L 1329.52 644.00
  A 0.77 0.77 0.0 0 1 1330.29 644.77
  L 1330.17 655.59
  Q 1330.17 656.00 1330.58 656.00
  L 1340.52 656.00
  Q 1341.49 656.00 1341.50 656.96
  L 1341.57 663.43
  Q 1341.57 664.00 1341.00 664.00
  L 1330.78 664.00
  Q 1330.21 664.00 1330.21 664.57
  Q 1330.26 674.67 1330.28 684.68
  C 1330.29 691.61 1336.47 692.72 1341.13 689.30
  A 0.31 0.31 0.0 0 1 1341.62 689.55
  L 1341.45 697.30
  Q 1341.44 697.73 1341.03 697.86
  C 1332.00 700.75 1320.79 699.62 1319.92 687.80
  Q 1319.05 676.10 1319.67 664.49
  Z"
/>
<path fill="#878888" d="
  M 377.00 692.77
  A 0.35 0.35 0.0 0 0 376.35 692.58
  C 372.18 699.24 363.31 700.20 356.54 697.69
  C 344.45 693.19 345.88 677.91 357.59 674.10
  Q 365.88 671.40 376.48 672.11
  A 0.57 0.56 -88.1 0 0 377.08 671.54
  C 376.99 660.08 362.65 661.85 356.69 667.03
  A 0.46 0.46 0.0 0 1 356.06 667.00
  L 351.25 662.15
  Q 350.89 661.78 351.25 661.42
  C 358.92 653.70 377.85 651.65 384.12 662.10
  Q 385.82 664.94 386.15 670.75
  Q 386.91 684.07 386.35 697.41
  Q 386.33 698.00 385.73 698.00
  L 377.50 698.00
  Q 377.00 698.00 377.00 697.50
  L 377.00 692.77
  Z
  M 359.58 683.29
  C 353.61 692.32 377.72 695.97 376.38 680.69
  Q 376.34 680.26 375.91 680.22
  C 371.41 679.74 361.61 680.20 359.58 683.29
  Z"
/>
<path fill="#878888" d="
  M 643.3499 676.9203
  A 22.82 22.13 -0.2 0 1 620.6072 699.1299
  A 22.82 22.13 -0.2 0 1 597.7101 677.0797
  A 22.82 22.13 -0.2 0 1 620.4528 654.8701
  A 22.82 22.13 -0.2 0 1 643.3499 676.9203
  Z
  M 620.5428 690.0700
  A 13.07 12.31 89.9 0 0 632.8300 676.9785
  A 13.07 12.31 89.9 0 0 620.4972 663.9300
  A 13.07 12.31 89.9 0 0 608.2100 677.0215
  A 13.07 12.31 89.9 0 0 620.5428 690.0700
  Z"
/>
<path fill="#878888" d="
  M 671.70 661.64
  Q 677.85 653.53 687.50 655.26
  C 692.02 656.07 695.33 658.30 697.09 662.50
  A 0.39 0.38 48.1 0 0 697.78 662.54
  C 700.92 656.86 706.58 654.42 713.03 655.16
  Q 725.76 656.63 726.10 671.46
  Q 726.41 684.41 726.20 697.33
  A 0.69 0.68 0.4 0 1 725.51 698.00
  L 716.25 698.00
  Q 715.74 698.00 715.74 697.48
  Q 715.80 685.11 715.68 672.78
  C 715.62 666.81 712.12 662.79 705.95 664.25
  C 700.33 665.58 699.31 670.26 699.19 675.74
  Q 698.98 685.72 699.37 696.57
  Q 699.42 698.00 697.99 698.00
  L 689.02 698.00
  A 0.50 0.50 0.0 0 1 688.52 697.50
  Q 688.47 685.24 688.49 673.06
  C 688.51 658.65 672.20 662.32 671.88 674.71
  Q 671.58 686.02 671.84 697.39
  Q 671.85 698.00 671.24 698.00
  L 662.25 698.00
  Q 661.50 698.00 661.50 697.25
  L 661.50 656.75
  Q 661.50 656.00 662.25 656.00
  L 670.91 656.00
  Q 671.58 656.00 671.55 656.67
  L 671.36 661.51
  Q 671.33 662.12 671.70 661.64
  Z"
/>
<path fill="#878888" d="
  M 756.75 661.67
  C 763.14 653.07 776.93 651.87 782.12 662.41
  Q 782.40 662.97 782.72 662.44
  Q 786.96 655.39 795.24 655.08
  C 807.05 654.64 811.15 662.83 811.21 673.07
  Q 811.29 685.31 811.24 697.50
  A 0.51 0.51 0.0 0 1 810.73 698.00
  L 801.26 698.00
  Q 800.74 698.00 800.74 697.48
  Q 800.76 685.10 800.74 672.75
  C 800.73 668.99 799.19 665.11 795.08 664.31
  C 786.77 662.70 784.23 668.88 784.26 675.94
  Q 784.31 686.72 784.22 697.51
  A 0.50 0.50 0.0 0 1 783.72 698.00
  L 774.02 698.00
  Q 773.53 698.00 773.53 697.51
  Q 773.44 684.22 773.50 671.01
  C 773.54 662.24 762.26 662.06 758.56 668.17
  C 755.30 673.57 756.62 690.79 756.91 697.36
  Q 756.93 698.00 756.29 698.00
  L 747.25 698.00
  Q 746.50 698.00 746.50 697.25
  L 746.50 656.75
  Q 746.50 656.00 747.25 656.00
  L 755.92 656.00
  Q 756.59 656.00 756.56 656.67
  L 756.32 661.52
  Q 756.29 662.30 756.75 661.67
  Z"
/>
<path fill="#878888" d="
  M 841.71 696.99
  C 823.74 688.89 824.84 663.11 843.21 656.46
  C 855.97 651.84 868.50 658.22 870.58 672.02
  Q 871.20 676.18 871.04 680.27
  A 0.76 0.75 0.8 0 1 870.28 681.00
  L 839.96 681.00
  Q 839.33 681.00 839.42 681.63
  C 841.05 693.07 854.78 693.44 861.18 685.78
  Q 861.57 685.31 862.06 685.68
  L 868.76 690.67
  Q 869.15 690.96 868.83 691.32
  C 862.10 698.89 850.93 701.15 841.71 696.99
  Z
  M 839.69 673.05
  L 860.63 672.95
  A 0.19 0.19 0.0 0 0 860.82 672.75
  L 860.81 672.63
  A 10.27 9.71 -0.3 0 0 850.49 662.98
  L 849.71 662.98
  A 10.27 9.71 -0.3 0 0 839.49 672.75
  L 839.50 672.87
  A 0.19 0.19 0.0 0 0 839.69 673.05
  Z"
/>
<path fill="#878888" d="
  M 900.31 662.00
  A 0.23 0.23 0.0 0 0 900.74 662.13
  C 903.40 657.74 911.18 652.25 916.15 656.01
  Q 916.56 656.32 916.55 656.83
  L 916.48 664.78
  Q 916.47 665.67 915.59 665.48
  C 906.45 663.52 900.43 667.93 900.49 676.94
  Q 900.56 687.23 900.47 697.49
  Q 900.46 698.00 899.95 698.00
  L 890.39 698.00
  Q 889.78 698.00 889.78 697.39
  L 889.82 656.59
  Q 889.82 656.00 890.41 656.00
  L 899.92 656.00
  Q 900.59 656.00 900.56 656.67
  L 900.31 662.00
  Z"
/>
<path fill="#878888" d="
  M 932.41 689.23
  C 927.53 682.04 927.73 671.10 932.94 663.97
  C 940.66 653.40 956.61 652.06 966.28 660.67
  Q 966.70 661.04 966.30 661.43
  L 959.66 667.91
  A 0.50 0.49 -42.3 0 1 958.94 667.88
  C 948.35 655.08 931.70 675.08 942.84 686.26
  C 947.65 691.08 954.41 691.44 959.40 686.54
  Q 959.70 686.24 960.00 686.55
  L 966.37 693.15
  Q 966.69 693.49 966.31 693.76
  C 955.23 701.75 940.16 700.65 932.41 689.23
  Z"
/>
<path fill="#878888" d="
  M 1038.54 692.47
  Q 1037.98 692.72 1037.83 693.37
  Q 1037.72 693.86 1037.34 694.21
  Q 1029.50 701.43 1018.94 697.84
  C 1006.52 693.61 1007.71 677.74 1019.59 674.10
  Q 1028.32 671.43 1038.42 672.08
  Q 1038.92 672.11 1038.96 671.61
  C 1039.67 660.04 1024.50 662.04 1018.70 667.06
  A 0.48 0.47 -42.3 0 1 1018.05 667.03
  L 1013.25 662.13
  Q 1012.89 661.76 1013.26 661.39
  C 1020.94 653.71 1039.91 651.68 1046.13 662.10
  Q 1047.82 664.92 1048.15 670.74
  Q 1048.91 684.06 1048.35 697.41
  Q 1048.33 698.00 1047.73 698.00
  L 1039.50 698.00
  Q 1039.00 698.00 1039.00 697.50
  L 1039.00 692.77
  A 0.33 0.32 77.8 0 0 1038.54 692.47
  Z
  M 1021.58 683.29
  C 1015.61 692.32 1039.73 695.99 1038.37 680.67
  Q 1038.33 680.25 1037.91 680.20
  C 1033.54 679.75 1023.61 680.21 1021.58 683.29
  Z"
/>
<path fill="#878888" d="
  M 1209.71 696.99
  C 1191.74 688.89 1192.84 663.11 1211.21 656.46
  C 1223.97 651.84 1236.50 658.22 1238.58 672.02
  Q 1239.20 676.18 1239.04 680.27
  A 0.76 0.75 0.8 0 1 1238.28 681.00
  L 1207.96 681.00
  Q 1207.33 681.00 1207.42 681.63
  C 1209.05 693.07 1222.78 693.44 1229.18 685.78
  Q 1229.57 685.31 1230.06 685.68
  L 1236.76 690.67
  Q 1237.15 690.96 1236.83 691.32
  C 1230.09 698.89 1218.93 701.14 1209.71 696.99
  Z
  M 1207.56 673.14
  L 1228.64 672.88
  A 0.19 0.19 0.0 0 0 1228.83 672.69
  L 1228.83 672.58
  A 10.47 9.72 -0.7 0 0 1218.24 662.99
  L 1217.72 662.99
  A 10.47 9.72 -0.7 0 0 1207.37 672.84
  L 1207.37 672.95
  A 0.19 0.19 0.0 0 0 1207.56 673.14
  Z"
/>
<path fill="#878888" d="
  M 1267.22 661.83
  C 1275.83 649.77 1294.43 654.23 1294.90 669.45
  Q 1295.21 679.45 1294.92 697.56
  Q 1294.91 698.00 1294.47 698.00
  L 1285.02 698.00
  A 0.52 0.52 0.0 0 1 1284.50 697.48
  Q 1284.51 685.21 1284.46 673.03
  C 1284.42 663.27 1273.14 660.48 1268.73 668.62
  Q 1267.51 670.88 1267.52 675.61
  Q 1267.53 686.54 1267.48 697.48
  Q 1267.48 698.00 1266.96 698.00
  L 1257.58 698.00
  Q 1256.92 698.00 1256.92 697.33
  L 1256.77 656.62
  A 0.61 0.61 0.0 0 1 1257.38 656.00
  L 1265.92 656.00
  A 0.90 0.90 0.0 0 1 1266.82 656.92
  L 1266.73 661.67
  Q 1266.71 662.54 1267.22 661.83
  Z"
/>
<path fill="#878888" d="
  M 1369.63 696.95
  C 1351.84 688.85 1352.78 663.12 1371.21 656.44
  Q 1378.75 653.71 1385.77 656.00
  C 1396.84 659.63 1398.90 669.78 1399.20 680.06
  A 0.91 0.91 0.0 0 1 1398.29 681.00
  L 1367.96 681.00
  Q 1367.33 681.00 1367.42 681.63
  C 1369.05 693.07 1382.78 693.44 1389.18 685.78
  Q 1389.57 685.31 1390.06 685.67
  L 1396.76 690.67
  Q 1397.15 690.96 1396.83 691.33
  C 1390.06 698.90 1378.88 701.16 1369.63 696.95
  Z
  M 1367.46 672.97
  L 1388.56 673.05
  A 0.19 0.19 0.0 0 0 1388.75 672.86
  L 1388.75 672.75
  A 10.47 9.72 0.2 0 0 1378.32 662.99
  L 1377.78 662.99
  A 10.47 9.72 0.2 0 0 1367.27 672.67
  L 1367.27 672.78
  A 0.19 0.19 0.0 0 0 1367.46 672.97
  Z"
/>
<path fill="#878888" d="
  M 1427.31 662.00
  A 0.23 0.23 0.0 0 0 1427.74 662.13
  C 1430.29 657.89 1438.44 652.03 1443.20 656.05
  Q 1443.55 656.35 1443.55 656.81
  L 1443.48 664.74
  Q 1443.47 665.70 1442.53 665.49
  C 1433.90 663.57 1427.44 667.73 1427.49 676.48
  Q 1427.56 687.00 1427.47 697.48
  Q 1427.47 698.00 1426.95 698.00
  L 1417.46 698.00
  Q 1416.93 698.00 1416.93 697.46
  L 1416.96 656.52
  Q 1416.96 656.00 1417.48 656.00
  L 1426.92 656.00
  Q 1427.59 656.00 1427.56 656.67
  L 1427.31 662.00
  Z"
/>
<rect fill="#878888" x="470.24" y="656.01" width="10.26" height="41.98" rx="0.45"/>
<rect fill="#878888" x="982.24" y="656.01" width="10.26" height="41.98" rx="0.45"/>
<rect fill="#878888" x="229.00" y="673.00" width="21.50" height="8.00" rx="0.52"/>
</svg>
